# xmcd
#
# Track frame offsets: 
#        150
#        20933
#        35674
#        53899
#        69423
#        88167
#        106161
#        123576
#        139483
#        161458
#
# Disc length: 2534 seconds
#
# Revision: 0
# Processed by: cddbd v1.5.1PL2 Copyright (c) Steve Scherf et al.
# Submitted via: ExactAudioCopy v0.95b3
#
DISCID=9009e40a
DTITLE=Frank Cosentino Band - Unfinished Business
DYEAR=2005
DGENRE=Blues/Rock
TTITLE0=1000 Miles
TTITLE1=Cadillac Car
TTITLE2=Voodoo Blues
TTITLE3=Come Into My Kitchen
TTITLE4=Six String Fever
TTITLE5=The Remedy
TTITLE6=Capital "T"
TTITLE7=That's All Right
TTITLE8=Drunk
TTITLE9=Cool Blue
EXTD=
EXTT0=
EXTT1=
EXTT2=
EXTT3=
EXTT4=
EXTT5=
EXTT6=
EXTT7=
EXTT8=
EXTT9=
PLAYORDER=
